<?xml version="1.0" encoding="utf-8"?>
<!DOCTYPE svg PUBLIC "-//W3C//DTD SVG 1.0//EN" "http://www.w3.org/TR/2001/REC-SVG-20010904/DTD/svg10.dtd">
<svg version="1.0" xmlns="http://www.w3.org/2000/svg" width="500px" height="500px" viewBox="0 0 500 500" preserveAspectRatio="xMidYMid meet">
 <g fill="#0e3352">
  <path d="M126 370 l0 -31 16 0 16 0 0 5.5 0 5.5 -8 0 -8 0 0 7 0 7 6.5 0 6.5 0 0 5.5 0 5.5 -6.5 0 -6.5 0 0 7.5 0 7.5 8.5 0 8.5 0 0 5.5 0 5.5 -16.5 0 -16.5 0 0 -31z"/>
  <path d="M164.9 394.3 c1.6 -3.8 4.5 -10.5 6.5 -15 2 -4.5 3.6 -9 3.6 -10.1 0 -1.2 -1.3 -4.9 -2.9 -8.4 -1.6 -3.5 -4.1 -9.2 -5.6 -12.8 -1.5 -3.6 -2.9 -7.1 -3.2 -7.8 -0.4 -1 1.4 -1.2 8.3 -1 l8.9 0.3 1.4 7.3 c0.7 3.9 1.7 7.2 2.1 7.2 0.4 0 1.5 -3.4 2.5 -7.5 l1.7 -7.5 8.3 0 8.3 0 -5 12.3 c-7.4 18.1 -7.3 17.4 -3.9 24.8 1.5 3.5 4.3 9.6 6 13.4 1.7 3.9 3.6 7.8 4.1 8.7 0.6 1 1 2 1 2.3 0 0.3 -3.9 0.4 -8.7 0.3 l-8.6 -0.3 -2.5 -8.7 c-1.4 -4.9 -2.8 -8.8 -3.2 -8.8 -0.4 0 -1.8 4.1 -3.1 9 l-2.3 9 -8.2 0 -8.3 0 2.8 -6.7z"/>
  <path d="M258 370 l0 -31 8 0 8 0 0 25.5 0 25.5 7.5 0 7.5 0 0 5.5 0 5.5 -15.5 0 -15.5 0 0 -31z"/>
  <path d="M291 399.4 c0 -0.8 0.9 -5.5 2 -10.2 3.1 -13.1 3.7 -15.9 6.1 -26.2 1.1 -5.2 2.5 -10.8 2.9 -12.5 0.5 -1.6 1.2 -4.9 1.5 -7.2 l0.7 -4.3 8.8 0 8.8 0 2.2 9.8 c1.2 5.3 2.4 10.4 2.7 11.2 0.3 0.8 1 3.4 1.4 5.8 1.1 5.1 2.5 11.3 3.7 16.7 0.6 2.2 1.5 6.5 2.1 9.5 0.6 3 1.4 6.3 1.7 7.3 0.5 1.5 -0.3 1.7 -7.5 1.7 l-8 0 -0.7 -5 -0.7 -5 -5.7 0 -5.8 0 -0.7 5 -0.7 5 -7.4 0 c-6.1 0 -7.4 -0.3 -7.4 -1.6z m25.3 -22.9 c-0.3 -5.9 -2.4 -16.5 -3.2 -16.5 -0.9 0 -4.1 19.1 -3.4 20.3 0.3 0.4 1.9 0.7 3.6 0.5 3.1 -0.3 3.2 -0.5 3 -4.3z"/>
  <path d="M350.5 399.9 c-7.2 -1.3 -9.5 -4.3 -9.5 -12 l0 -5.9 7.5 0 7.5 0 0 3.4 c0 3.5 1.7 5 4.5 4 1.1 -0.5 1.5 -2.3 1.5 -7.5 l0 -6.9 -7.6 0 c-7 0 -7.8 -0.2 -10.4 -2.8 -3.4 -3.5 -4.5 -9.3 -3.7 -19.6 0.5 -6.2 1 -7.4 3.6 -9.8 2.4 -2.1 4.3 -2.7 10.4 -3.3 17.3 -1.6 23.7 2.2 23.7 14.1 l0 4.4 -7.9 0 -8 0 -0.3 -3.7 c-0.3 -3.3 -0.6 -3.8 -2.8 -3.8 -2.4 0 -2.5 0.2 -2.5 7 l0 7 7.5 0.6 c12.8 0.9 14.4 3.1 13.8 18.8 -0.4 12.1 -1.7 14.2 -10.5 16 -6.4 1.3 -9.7 1.3 -16.8 0z"/>
  <path d="M395 399.8 c-6.6 -1.4 -9 -4.5 -9 -11.9 l0 -5.9 7.5 0 7.5 0 0 2.9 c0 3.2 2.2 5.6 4.5 4.7 1.1 -0.4 1.5 -2.2 1.5 -7.6 l0 -7 -7.6 0 c-7 0 -7.8 -0.2 -10.4 -2.8 -3.3 -3.4 -4.5 -9.1 -3.8 -19.1 0.9 -11.7 3.7 -13.6 19.8 -13.6 8.4 0 11 0.4 13.2 1.8 3.2 2.2 4.8 6.4 4.8 12.3 l0 4.4 -7.9 0 -8 0 -0.3 -3.7 c-0.3 -3.3 -0.6 -3.8 -2.8 -3.8 -2.4 0 -2.5 0.2 -2.5 7 l0 7 8.2 0.6 c4.6 0.3 8.9 1.2 9.7 1.8 2.9 2.4 3.8 6.9 3.4 17 -0.3 8.7 -0.6 10.2 -2.6 12.4 -3.8 4 -15.2 5.6 -25.2 3.5z"/>
  <path d="M243.5 307.9 c-2.2 -1.2 -4.7 -2.7 -5.5 -3.5 -1.3 -1.1 -10.6 -1.4 -47.2 -1.6 -44.4 -0.3 -45.8 -0.4 -47.2 -2.3 -1.3 -1.7 -1.5 -9.7 -1.6 -58.7 0 -55.5 0 -56.8 2 -58.8 1.5 -1.5 3.3 -2 7.5 -2 l5.5 0 0 53.5 0 53.5 40 0 40 0 0 -2.5 0 -2.5 -35.4 0 c-19.5 0 -36.1 -0.3 -37 -0.6 -1.4 -0.6 -1.6 -6.7 -1.6 -58.9 0 -66.4 -0.7 -61.5 8.6 -61.5 l5.4 0 0 41.5 0 41.5 14.6 0 c21.5 0 36.3 4.3 52.8 15.3 l5.8 3.9 3.1 -2.3 c18.1 -13.4 28.5 -16.8 53 -17.6 l16.7 -0.6 0 -40.2 c0 -45.3 -0.6 -42.2 7.7 -40.9 2.7 0.4 4.7 1.3 5.3 2.5 0.6 1.1 1 24 1 59.3 0 55.9 -0.1 57.6 -1.9 57.6 -26.1 0 -69 0.5 -70.3 0.8 -1.1 0.3 -1.8 1.4 -1.8 2.8 l0 2.4 39.5 0 39.5 0 0 -53.5 0 -53.5 5.5 0 c6 0 8.9 1.9 10 6.2 0.3 1.3 0.4 26.9 0.3 57 -0.3 51 -0.4 54.9 -2.1 56.5 -1.6 1.7 -5.1 1.8 -46.9 2 -36.9 0.2 -45.4 0.5 -46.7 1.7 -2.7 2.3 -9.9 5.6 -12.3 5.6 -1.3 0 -4.1 -0.9 -6.3 -2.1z m-20.5 -40.8 c0 -1.4 -4.3 -3.8 -10.8 -6 -4.3 -1.4 -10.3 -2.1 -20.6 -2.6 l-14.6 -0.7 0 4.4 c0 2.5 0.3 4.8 0.7 5.1 1 1 45.3 0.8 45.3 -0.2z m100 -4.8 l0 -4.6 -14.7 0.6 c-8.2 0.4 -17 1.3 -19.8 2.1 -7.2 2 -13.5 4.7 -13.5 5.7 0 0.5 10.6 0.9 24 0.9 l24 0 0 -4.7z"/>
 </g>
 <g fill="#25b3b4">
  <path d="M78.2 369.8 l0.3 -30.3 6.5 0 6.4 0 1.2 4 c0.7 2.2 2.8 9.1 4.7 15.4 1.8 6.3 3.9 11.7 4.5 11.9 0.9 0.3 1.2 -3.9 1.2 -15.7 l0 -16.1 7 0 7 0 0 30.5 0 30.5 -6.8 0 -6.7 0 -1.2 -3.7 c-6.8 -22.6 -8.8 -28.2 -9.5 -27.1 -0.4 0.7 -0.8 7.9 -0.8 16.1 l0 14.7 -7 0 -7 0 0.2 -30.2z"/>
  <path d="M219.4 399.4 c-1.2 -0.3 -3.2 -1.6 -4.5 -3 -2.3 -2.5 -2.4 -3 -2.7 -23.7 -0.2 -11.7 0.1 -23 0.5 -25.1 1.2 -5.5 4.3 -7.4 12.9 -8.2 10.9 -1 18.2 0.2 21.6 3.6 2.6 2.6 2.8 3.4 2.8 10.4 l0 7.6 -7.5 0 -7.4 0 -0.3 -5.7 c-0.3 -5.2 -0.5 -5.8 -2.6 -6.1 -4.9 -0.7 -5.2 0.7 -5.2 20.4 0 15.3 0.3 18.5 1.6 19.8 1.8 1.9 2 1.9 4.5 0.6 1.5 -0.8 1.9 -2.2 1.9 -6 l0 -5 7.5 0 7.5 0 0 6.5 c0 12.1 -2.1 13.9 -17.5 14.1 -6 0.1 -12 0 -13.1 -0.2z"/>
  <path d="M243 222.6 c-2.5 -1.3 -8.3 -4.6 -13 -7.3 -4.7 -2.7 -12.5 -7.1 -17.5 -9.7 -13.9 -7.4 -15.2 -8.4 -16.4 -11.8 -1.2 -3.3 -1.6 -48.8 -0.4 -48.8 0.3 0 3.5 1.6 7 3.5 l6.3 3.6 0 18.4 0 18.5 5.8 3 c3.1 1.7 7.1 3.8 8.7 4.8 7.1 4.1 18.3 10.2 18.9 10.2 0.3 0 0.6 -10.1 0.6 -22.5 0 -14.6 -0.4 -22.5 -1 -22.5 -0.6 0 -2.7 -1 -4.8 -2.3 -2 -1.3 -6.2 -3.7 -9.2 -5.4 -8.1 -4.5 -14.7 -8.1 -22.5 -12.6 -3.8 -2.2 -8 -4.5 -9.2 -5.1 -1.3 -0.6 -2.3 -1.6 -2.3 -2.3 0 -1.3 2.2 -2.7 34.7 -21.1 l21.2 -12.1 13.3 7.6 c7.3 4.2 19.8 11.3 27.8 15.8 8 4.5 14.5 8.8 14.5 9.5 0 0.7 -4.7 3.9 -10.5 7.2 -5.8 3.3 -11.8 6.8 -13.5 7.8 -1.6 1 -7.7 4.4 -13.5 7.7 l-10.5 6 -0.3 22.2 c-0.1 12.1 0.1 22.1 0.5 22.1 0.7 0 3.5 -1.6 12.8 -7 1.7 -1 6.6 -3.8 11 -6.4 l8 -4.6 0.5 -18.6 0.5 -18.6 6.5 -3.4 6.5 -3.4 0.3 24.2 c0.2 23.9 0.2 24.2 -2 26.6 -2.2 2.3 -8.2 6 -21.3 13.2 -3.3 1.8 -8.9 5.1 -12.5 7.3 -9 5.6 -15.6 8.7 -18.2 8.6 -1.3 0 -4.3 -1 -6.8 -2.3z m13.8 -74.6 c3.1 -1.7 7.3 -3.9 9.2 -5 1.9 -1.2 6.1 -3.5 9.3 -5.2 3.1 -1.7 5.7 -3.4 5.7 -3.8 0 -0.5 -7 -4.7 -15.5 -9.5 l-15.5 -8.7 -13.8 7.8 c-16.6 9.3 -17.2 9.7 -17.2 10.6 0 0.4 3.9 2.8 8.8 5.4 4.8 2.7 11.2 6.3 14.2 8.1 3 1.8 6.3 3.3 7.3 3.3 1 0 4.3 -1.4 7.5 -3z"/>
 </g>
</svg>